<svg xmlns="http://www.w3.org/2000/svg" xmlns:xlink="http://www.w3.org/1999/xlink" fill="none" version="1.1" width="24" height="24" viewBox="0 0 24 24"><defs><clipPath id="master_svg0_0_51"><rect x="0" y="0" width="24" height="24" rx="0"/></clipPath></defs><g clip-path="url(#master_svg0_0_51)"><g><path d="M14.820038319206239,4.260000228881836C14.621438319206238,4.615687228881836,14.444438319206238,4.983020228881836,14.290038319206237,5.360000228881836C12.772738319206237,5.120051228881836,11.227238319206238,5.120051228881836,9.709998319206239,5.360000228881836C9.555588319206237,4.983020228881836,9.378598319206237,4.615687228881836,9.179998319206238,4.260000228881836C7.7507883192062375,4.504201228881836,6.361408319206237,4.9415372288818356,5.049998319206238,5.560000228881836C2.704940319206238,8.944290228881837,1.6414373192062377,13.052950228881835,2.049999919206238,17.150000228881837C3.5782383192062377,18.298900228881834,5.293458319206238,19.17510022888184,7.119998319206238,19.740000228881836C7.535918319206238,19.190600228881834,7.907098319206238,18.608700228881837,8.229998319206238,18.000000228881838C7.634078319206238,17.780300228881835,7.061298319206238,17.502300228881836,6.519998319206238,17.170000228881836C6.668458319206238,17.071200228881835,6.808898319206238,16.960900228881837,6.9399983192062376,16.840000228881834C8.518458319206239,17.600300228881835,10.247968319206239,17.995100228881835,12.000038319206238,17.995100228881835C13.752038319206237,17.995100228881835,15.481538319206237,17.600300228881835,17.060038319206235,16.840000228881834C17.200038319206236,16.960000228881835,17.340038319206236,17.070000228881838,17.480038319206237,17.170000228881836C16.935738319206237,17.499600228881835,16.36353831920624,17.780700228881834,15.770038319206238,18.010000228881836C16.079538319206236,18.632500228881838,16.44073831920624,19.228000228881836,16.850038319206238,19.790000228881837C18.67423831920624,19.227000228881835,20.386538319206238,18.350600228881838,21.910038319206237,17.200000228881834C22.32833831920624,13.102200228881836,21.26403831920624,8.990180228881837,18.910038319206237,5.610000228881836C17.613338319206235,4.978737228881836,16.237638319206237,4.524670228881836,14.820038319206239,4.260000228881836ZM8.679998319206238,14.810000228881837C8.179588319206239,14.774100228881835,7.712538319206238,14.545700228881836,7.376918319206238,14.172770228881836C7.041298319206238,13.799860228881835,6.863198319206238,13.311420228881836,6.879998319206238,12.810000228881837C6.860658319206237,12.307920228881835,7.037888319206238,11.818080228881836,7.374008319206238,11.444610228881835C7.710138319206238,11.071140228881836,8.178658319206239,10.843470228881836,8.679998319206238,10.810000228881837C9.181338319206237,10.843470228881836,9.649858319206238,11.071140228881836,9.985988319206237,11.444610228881835C10.322108319206238,11.818080228881836,10.499338319206238,12.307920228881835,10.479998319206238,12.810000228881837C10.499338319206238,13.312080228881836,10.322108319206238,13.801920228881835,9.985988319206237,14.175390228881836C9.649858319206238,14.548900228881836,9.181338319206237,14.776500228881837,8.679998319206238,14.810000228881837ZM15.320038319206239,14.810000228881837C14.819538319206238,14.774100228881835,14.352538319206237,14.545700228881836,14.016938319206238,14.172770228881836C13.681338319206239,13.799860228881835,13.503238319206238,13.311420228881836,13.520038319206238,12.810000228881837C13.500638319206237,12.307920228881835,13.677838319206238,11.818080228881836,14.014038319206238,11.444610228881835C14.350138319206238,11.071140228881836,14.818638319206238,10.843470228881836,15.320038319206239,10.810000228881837C15.822238319206237,10.840970228881837,16.292338319206237,11.067900228881836,16.628938319206238,11.441950228881836C16.96563831920624,11.815990228881837,17.14193831920624,12.307250228881836,17.120038319206238,12.810000228881837C17.14193831920624,13.312750228881836,16.96563831920624,13.804010228881836,16.628938319206238,14.178050228881835C16.292338319206237,14.552100228881836,15.822238319206237,14.779000228881836,15.320038319206239,14.810000228881837Z" fill="#D9E5EC" fill-opacity="1"/></g></g></svg>