<svg xmlns="http://www.w3.org/2000/svg" xmlns:xlink="http://www.w3.org/1999/xlink" fill="none" version="1.1" width="24" height="24" viewBox="0 0 24 24"><defs><clipPath id="master_svg0_0_58"><rect x="0" y="0" width="24" height="24" rx="0"/></clipPath></defs><g clip-path="url(#master_svg0_0_58)"><g><path d="M20,3C20,3,4,3,4,3C3.734784,3.0000000000000004,3.48043,3.105357,3.292893,3.292893C3.105357,3.48043,3.000000000000001,3.734784,3,4C3,4,3,20,3,20C3.0000000000000004,20.2652,3.105357,20.5196,3.292893,20.7071C3.48043,20.8946,3.734784,21,4,21C4,21,12.615,21,12.615,21C12.615,21,12.615,14.04,12.615,14.04C12.615,14.04,10.277000000000001,14.04,10.277000000000001,14.04C10.277000000000001,14.04,10.277000000000001,11.315,10.277000000000001,11.315C10.277000000000001,11.315,12.615,11.315,12.615,11.315C12.615,11.315,12.615,9.315000000000001,12.615,9.315000000000001C12.615,6.99,14.035,5.723,16.115000000000002,5.723C16.814,5.721,17.514,5.757,18.21,5.83C18.21,5.83,18.21,8.25,18.21,8.25C18.21,8.25,16.775,8.25,16.775,8.25C15.647,8.25,15.427,8.788,15.427,9.575C15.427,9.575,15.427,11.31,15.427,11.31C15.427,11.31,18.124000000000002,11.31,18.124000000000002,11.31C18.124000000000002,11.31,17.774,14.035,17.774,14.035C17.774,14.035,15.426,14.035,15.426,14.035C15.426,14.035,15.426,21,15.426,21C15.426,21,20,21,20,21C20.2652,21,20.5196,20.8946,20.7071,20.7071C20.8946,20.5196,21,20.2652,21,20C21,20,21,4,21,4C21,3.734784,20.8946,3.48043,20.7071,3.292893C20.5196,3.105357,20.2652,3.000000000000001,20,3Z" fill="#D9E5EC" fill-opacity="1"/></g></g></svg>