<svg xmlns="http://www.w3.org/2000/svg" xmlns:xlink="http://www.w3.org/1999/xlink" fill="none" version="1.1" width="24" height="24" viewBox="0 0 24 24"><defs><clipPath id="master_svg0_0_55"><rect x="0" y="0" width="24" height="24" rx="0"/></clipPath></defs><g clip-path="url(#master_svg0_0_55)"><g><path d="M20.946999979019164,8.304999946594238C20.936899979019167,7.547619946594239,20.795099979019167,6.797779946594238,20.527999979019164,6.088999946594239C20.296299979019164,5.491149946594238,19.942499979019164,4.948199946594238,19.489199979019165,4.494829946594239C19.035799979019163,4.041459946594238,18.492799979019164,3.687650946594238,17.894999979019165,3.4559999465942384C17.195299979019165,3.193356946594238,16.456199979019164,3.051341246594238,15.708999979019165,3.0360000465942383C14.746999979019165,2.993000046594238,14.441999979019165,2.9809999465942383,11.999999979019165,2.9809999465942383C9.557999979019165,2.9809999465942383,9.244999979019166,2.9810000136494383,8.289999979019164,3.0360000465942383C7.5431599790191655,3.0514540465942384,6.804349979019165,3.193467946594238,6.104999979019166,3.4559999465942384C5.507059979019165,3.687488946594238,4.964019979019165,4.041239946594239,4.510629979019165,4.494629946594238C4.057239979019165,4.948019946594238,3.703488979019165,5.4910599465942385,3.471999979019165,6.088999946594239C3.208830979019165,6.788129946594238,3.067123179019165,7.527109946594238,3.052999979019165,8.273999946594238C3.009999979019165,9.236999946594239,2.996999979019165,9.541999946594238,2.996999979019165,11.983999946594238C2.996999979019165,14.425999946594239,2.996999971568585,14.737999946594238,3.052999979019165,15.693999946594237C3.067999979019165,16.441999946594237,3.2089999790191652,17.179999946594236,3.471999979019165,17.880999946594237C3.703877979019165,18.478799946594236,4.057899979019165,19.02159994659424,4.5114399790191655,19.47479994659424C4.964979979019165,19.927999946594237,5.5080599790191656,20.281599946594238,6.105999979019165,20.51299994659424C6.803429979019166,20.786199946594238,7.542369979019165,20.938399946594238,8.290999979019166,20.962999946594238C9.253999979019165,21.005999946594237,9.558999979019166,21.01899994659424,12.000999979019165,21.01899994659424C14.442999979019165,21.01899994659424,14.755999979019165,21.01899994659424,15.710999979019165,20.962999946594238C16.458199979019163,20.94829994659424,17.197399979019167,20.80659994659424,17.896999979019164,20.543999946594237C18.494699979019167,20.312099946594238,19.037499979019167,19.958199946594238,19.490799979019165,19.50479994659424C19.944199979019164,19.051499946594237,20.298099979019167,18.508699946594238,20.529999979019166,17.910999946594238C20.792999979019164,17.21099994659424,20.933999979019166,16.47299994659424,20.948999979019167,15.723999946594239C20.991999979019166,14.761999946594239,21.004999979019164,14.45699994659424,21.004999979019164,12.013999946594238C21.002999979019165,9.57199994659424,21.002999979019165,9.261999946594237,20.946999979019164,8.304999946594238ZM11.993999979019165,16.60199994659424C9.439999979019165,16.60199994659424,7.370999979019165,14.532999946594238,7.370999979019165,11.978999946594238C7.370999979019165,9.424999946594237,9.439999979019165,7.355999946594238,11.993999979019165,7.355999946594238C13.220099979019166,7.355999946594238,14.395999979019164,7.843069946594238,15.262999979019165,8.71004994659424C16.129899979019164,9.577029946594237,16.616999979019162,10.752899946594237,16.616999979019162,11.978999946594238C16.616999979019162,13.205099946594238,16.129899979019164,14.380999946594239,15.262999979019165,15.247999946594238C14.395999979019164,16.11489994659424,13.220099979019166,16.60199994659424,11.993999979019165,16.60199994659424ZM16.800999979019167,8.262999946594238C16.659399979019163,8.263129946594239,16.519199979019163,8.235339946594237,16.388299979019166,8.181209946594239C16.257499979019165,8.12707994659424,16.138599979019165,8.047679946594238,16.038399979019164,7.947549946594238C15.938299979019165,7.8474299465942385,15.858899979019165,7.728539946594238,15.804799979019165,7.5976899465942385C15.750699979019165,7.466839946594238,15.722899979019164,7.326599946594238,15.722999979019166,7.184999946594238C15.722999979019166,7.043499946594238,15.750899979019165,6.903389946594238,15.804999979019165,6.7726599465942385C15.859199979019165,6.641929946594239,15.938499979019165,6.523149946594238,16.038599979019168,6.423089946594239C16.138599979019165,6.323039946594238,16.257399979019166,6.243669946594238,16.388199979019163,6.189519946594238C16.518899979019167,6.135369946594238,16.658999979019164,6.107499946594238,16.800499979019165,6.107499946594238C16.941999979019165,6.107499946594238,17.082099979019166,6.135369946594238,17.212799979019167,6.189519946594238C17.343599979019167,6.243669946594238,17.462399979019168,6.323039946594238,17.562399979019165,6.423089946594239C17.662499979019167,6.523149946594238,17.741799979019163,6.641929946594239,17.795999979019165,6.7726599465942385C17.850099979019163,6.903389946594238,17.877999979019165,7.043499946594238,17.877999979019165,7.184999946594238C17.877999979019165,7.780999946594238,17.395999979019166,8.262999946594238,16.800999979019167,8.262999946594238Z" fill="#D9E5EC" fill-opacity="1"/></g><g><path d="M14.997000175476074,11.97899983215332Q14.997000175476074,12.12652983215332,14.982540175476075,12.27334983215332Q14.968080175476075,12.42015983215332,14.939300175476074,12.56485983215332Q14.910520175476075,12.709549832153321,14.867690175476074,12.85072983215332Q14.824870175476075,12.99189983215332,14.768410175476074,13.12819983215332Q14.711950175476074,13.26449983215332,14.642410175476074,13.39459983215332Q14.572860175476073,13.52470983215332,14.490900175476074,13.64737983215332Q14.408940175476074,13.77003983215332,14.315350175476073,13.88407983215332Q14.221760175476074,13.998119832153321,14.117440175476073,14.102439832153319Q14.013120175476075,14.20675983215332,13.899080175476074,14.30034983215332Q13.785040175476073,14.39393983215332,13.662380175476073,14.47589983215332Q13.539710175476074,14.55786983215332,13.409600175476074,14.62740983215332Q13.279500175476073,14.69694983215332,13.143200175476075,14.75340983215332Q13.006900175476074,14.809869832153321,12.865720175476074,14.85268983215332Q12.724550175476075,14.89551983215332,12.579860175476075,14.92429983215332Q12.435160175476074,14.953079832153321,12.288350175476074,14.96753983215332Q12.141530175476074,14.98199983215332,11.994000175476074,14.98199983215332Q11.846470175476075,14.98199983215332,11.699650175476075,14.96753983215332Q11.552840175476074,14.953079832153321,11.408140175476074,14.92429983215332Q11.263450175476073,14.89551983215332,11.122270175476075,14.85268983215332Q10.981100175476074,14.809869832153321,10.844800175476074,14.75340983215332Q10.708500175476074,14.69694983215332,10.578400175476075,14.62740983215332Q10.448290175476075,14.55786983215332,10.325620175476073,14.47589983215332Q10.202960175476074,14.39393983215332,10.088920175476074,14.30034983215332Q9.974876175476075,14.20675983215332,9.870558175476074,14.102439832153319Q9.766240175476074,13.998119832153321,9.672650175476074,13.88407983215332Q9.579059175476074,13.77003983215332,9.497097175476075,13.64737983215332Q9.415135175476074,13.52470983215332,9.345590175476074,13.39459983215332Q9.276046175476074,13.26449983215332,9.219590175476075,13.12819983215332Q9.163133175476075,12.99189983215332,9.120308175476074,12.85071983215332Q9.077483275476075,12.709549832153321,9.048701975476074,12.56485983215332Q9.019920675476074,12.42015983215332,9.005460475476074,12.27334983215332Q8.991000175476074,12.12652983215332,8.991000175476074,11.97899983215332Q8.991000175476074,11.83146983215332,9.005460475476074,11.68465983215332Q9.019920675476074,11.53783983215332,9.048701975476074,11.39313983215332Q9.077483275476075,11.24844983215332,9.120308175476074,11.10727983215332Q9.163133175476075,10.96609983215332,9.219590175476075,10.82979983215332Q9.276046175476074,10.69349983215332,9.345590175476074,10.563399832153321Q9.415135175476074,10.43328983215332,9.497097175476075,10.31061983215332Q9.579059175476074,10.18795983215332,9.672650175476074,10.07391983215332Q9.766240175476074,9.95987683215332,9.870558175476074,9.85555783215332Q9.974876175476075,9.75123983215332,10.088920175476074,9.65764983215332Q10.202960175476074,9.56405883215332,10.325620175476073,9.48209683215332Q10.448290175476075,9.40013483215332,10.578400175476075,9.33058983215332Q10.708500175476074,9.26104583215332,10.844800175476074,9.20458983215332Q10.981100175476074,9.14813283215332,11.122270175476075,9.10530783215332Q11.263450175476073,9.062482932153321,11.408140175476074,9.03370163215332Q11.552840175476074,9.00492033215332,11.699650175476075,8.99046013215332Q11.846470175476075,8.97599983215332,11.994000175476074,8.97599983215332Q12.141530175476074,8.97599983215332,12.288350175476074,8.99046013215332Q12.435160175476074,9.00492033215332,12.579860175476075,9.03370163215332Q12.724550175476075,9.062482932153321,12.865720175476074,9.10530783215332Q13.006900175476074,9.14813283215332,13.143200175476075,9.20458983215332Q13.279500175476073,9.26104583215332,13.409600175476074,9.33058983215332Q13.539710175476074,9.40013483215332,13.662380175476073,9.48209683215332Q13.785040175476073,9.56405883215332,13.899080175476074,9.65764983215332Q14.013120175476075,9.75123983215332,14.117440175476073,9.85555783215332Q14.221760175476074,9.95987683215332,14.315350175476073,10.07391983215332Q14.408940175476074,10.18795983215332,14.490900175476074,10.31061983215332Q14.572860175476073,10.43328983215332,14.642410175476074,10.563399832153321Q14.711950175476074,10.69349983215332,14.768410175476074,10.82979983215332Q14.824870175476075,10.96609983215332,14.867690175476074,11.10727983215332Q14.910520175476075,11.24844983215332,14.939300175476074,11.39313983215332Q14.968080175476075,11.53783983215332,14.982540175476075,11.68464983215332Q14.997000175476074,11.83146983215332,14.997000175476074,11.97899983215332Z" fill="#D9E5EC" fill-opacity="1"/></g></g></svg>