<svg xmlns="http://www.w3.org/2000/svg" x="0px" y="0px" viewBox="0 0 24 24" style="enable-background:new 0 0 24 24;" xml:space="preserve">
<style type="text/css">
	.st0{fill:#D9E5EC;}
</style>
<path class="st0" d="M0.7,3h22.7C23.7,3,24,3.3,24,3.7v1.7C24,5.7,23.7,6,23.3,6H0.7C0.3,6,0,5.7,0,5.3V3.7C0,3.3,0.3,3,0.7,3z
	 M6.7,10.5h16.7c0.4,0,0.7,0.3,0.7,0.7v1.7c0,0.4-0.3,0.7-0.7,0.7H6.7c-0.4,0-0.7-0.3-0.7-0.7v-1.7C6,10.8,6.3,10.5,6.7,10.5z
	 M14.2,18h9.2c0.4,0,0.7,0.3,0.7,0.7v1.7c0,0.4-0.3,0.7-0.7,0.7h-9.2c-0.4,0-0.7-0.3-0.7-0.7v-1.7C13.5,18.3,13.8,18,14.2,18z"/>
</svg>