<svg xmlns="http://www.w3.org/2000/svg" xmlns:xlink="http://www.w3.org/1999/xlink" fill="none" version="1.1" width="24" height="24" viewBox="0 0 24 24"><defs><clipPath id="master_svg0_0_60"><rect x="0" y="0" width="24" height="24" rx="0"/></clipPath></defs><g clip-path="url(#master_svg0_0_60)"><g><path d="M2.9710000562667847,12.18800361175537C2.9300000562667847,12.18800361175537,2.893000056266785,12.22600361175537,2.888000056266785,12.27000361175537C2.888000056266785,12.27000361175537,2.6940000562667845,14.067003611755371,2.6940000562667845,14.067003611755371C2.6940000562667845,14.067003611755371,2.888000056266785,15.823003611755372,2.888000056266785,15.823003611755372C2.893000056266785,15.872003611755371,2.9300000562667847,15.90500361175537,2.9710000562667847,15.90500361175537C3.0120000562667846,15.90500361175537,3.0460000562667844,15.872003611755371,3.0550000562667847,15.823003611755372C3.0550000562667847,15.823003611755372,3.2660000562667846,14.067003611755371,3.2660000562667846,14.067003611755371C3.2660000562667846,14.067003611755371,3.0410000562667845,12.27000361175537,3.0410000562667845,12.27000361175537C3.0410000562667845,12.224003611755371,3.0040000562667846,12.18800361175537,2.9670000562667846,12.18800361175537M2.2170000562667846,12.87900361175537C2.1660000562667845,12.87900361175537,2.1410000562667846,12.90900361175537,2.1290000562667846,12.958003611755371C2.1290000562667846,12.958003611755371,1.9910000562667847,14.067003611755371,1.9910000562667847,14.067003611755371C1.9910000562667847,14.067003611755371,2.1290000562667846,15.15900361175537,2.1290000562667846,15.15900361175537C2.1290000562667846,15.205003611755371,2.1660000562667845,15.237003611755371,2.2040000562667847,15.237003611755371C2.2430000562667844,15.237003611755371,2.2770000562667847,15.199003611755371,2.2910000562667845,15.15000361175537C2.2910000562667845,15.15000361175537,2.4670000562667846,14.050003611755372,2.4670000562667846,14.050003611755372C2.4670000562667846,14.050003611755372,2.2910000562667845,12.93800361175537,2.2910000562667845,12.93800361175537C2.2910000562667845,12.887003611755372,2.2540000562667846,12.862003611755371,2.2160000562667848,12.862003611755371M3.7420000562667846,11.837003611755371C3.6900000562667845,11.837003611755371,3.6420000562667845,11.87600361175537,3.6420000562667845,11.92400361175537C3.6420000562667845,11.92400361175537,3.4660000562667848,14.06300361175537,3.4660000562667848,14.06300361175537C3.4660000562667848,14.06300361175537,3.654000056266785,16.114003611755372,3.654000056266785,16.114003611755372C3.654000056266785,16.16300361175537,3.691000056266785,16.214003611755373,3.7530000562667847,16.214003611755373C3.8050000562667847,16.214003611755373,3.8420000562667846,16.16300361175537,3.8550000562667845,16.114003611755372C3.8550000562667845,16.114003611755372,4.066000056266785,14.050003611755372,4.066000056266785,14.050003611755372C4.066000056266785,14.050003611755372,3.8550000562667845,11.92400361175537,3.8550000562667845,11.92400361175537C3.8420000562667846,11.875003611755371,3.803000056266785,11.824003611755371,3.7530000562667847,11.824003611755371M4.543000056266784,11.74900361175537C4.4800000562667845,11.74900361175537,4.429000056266785,11.800003611755372,4.417000056266785,11.862003611755371C4.417000056266785,11.862003611755371,4.256000056266785,14.06300361175537,4.256000056266785,14.06300361175537C4.256000056266785,14.06300361175537,4.433000056266785,16.18600361175537,4.433000056266785,16.18600361175537C4.445000056266785,16.24900361175537,4.494000056266785,16.300003611755372,4.555000056266785,16.300003611755372C4.619000056266785,16.300003611755372,4.668000056266784,16.24900361175537,4.680000056266785,16.17600361175537C4.680000056266785,16.17600361175537,4.881000056266785,14.06300361175537,4.881000056266785,14.06300361175537C4.881000056266785,14.06300361175537,4.680000056266785,11.87600361175537,4.680000056266785,11.87600361175537C4.680270056266785,11.861303611755371,4.6775900562667845,11.846703611755371,4.672120056266785,11.833053611755371C4.666650056266785,11.81941361175537,4.658500056266785,11.80700361175537,4.648150056266784,11.79656361175537C4.6378000562667845,11.786123611755372,4.6254600562667845,11.777863611755372,4.611870056266785,11.77226361175537C4.598280056266784,11.76667361175537,4.5837000562667845,11.763863611755372,4.569000056266784,11.76400361175537C4.569000056266784,11.76400361175537,4.543000056266784,11.74900361175537,4.543000056266784,11.74900361175537ZM5.505000056266784,12.050003611755372C5.504610056266785,12.033013611755372,5.500850056266785,12.01627361175537,5.493930056266785,12.00076361175537C5.487010056266785,11.985243611755372,5.4770700562667844,11.971263611755372,5.464690056266784,11.959633611755372C5.452310056266785,11.947993611755372,5.437740056266785,11.93894361175537,5.421830056266785,11.932993611755371C5.405910056266785,11.92705361175537,5.388980056266785,11.92433361175537,5.372000056266785,11.925003611755372C5.337450056266785,11.924153611755372,5.303910056266785,11.93667361175537,5.278380056266785,11.959973611755371C5.252850056266785,11.98326361175537,5.237310056266784,12.01552361175537,5.235000056266784,12.050003611755372C5.235000056266784,12.050003611755372,5.053000056266784,14.076003611755372,5.053000056266784,14.076003611755372C5.053000056266784,14.076003611755372,5.2220000562667845,16.214003611755373,5.2220000562667845,16.214003611755373C5.2218600562667845,16.23132361175537,5.225190056266785,16.24850361175537,5.231790056266785,16.264523611755372C5.238390056266785,16.28054361175537,5.248120056266785,16.295083611755373,5.260420056266785,16.30729361175537C5.272720056266785,16.31949361175537,5.287330056266785,16.32911361175537,5.303400056266785,16.33559361175537C5.319470056266784,16.34207361175537,5.336680056266784,16.34526361175537,5.354000056266784,16.345003611755374C5.4160000562667845,16.345003611755374,5.477000056266785,16.29000361175537,5.477000056266785,16.21300361175537C5.477000056266785,16.21300361175537,5.6660000562667845,14.074003611755371,5.6660000562667845,14.074003611755371C5.6660000562667845,14.074003611755371,5.477000056266785,12.038003611755371,5.477000056266785,12.038003611755371C5.477000056266785,12.038003611755371,5.505000056266784,12.050003611755372,5.505000056266784,12.050003611755372ZM6.179000056266784,10.62400361175537C6.139890056266784,10.625513611755371,6.1028200562667845,10.64186361175537,6.075330056266784,10.669723611755371C6.047840056266785,10.697583611755372,6.0319900562667845,10.734873611755372,6.031000056266785,10.774003611755372C6.031000056266785,10.774003611755372,5.8550000562667845,14.074003611755371,5.8550000562667845,14.074003611755371C5.8550000562667845,14.074003611755371,6.011000056266784,16.21300361175537,6.011000056266784,16.21300361175537C6.011000056266784,16.29000361175537,6.077000056266785,16.35000361175537,6.161000056266785,16.35000361175537C6.239000056266785,16.35000361175537,6.306000056266785,16.27600361175537,6.311000056266785,16.20000361175537C6.311000056266785,16.20000361175537,6.485000056266784,14.06300361175537,6.485000056266784,14.06300361175537C6.485000056266784,14.06300361175537,6.312000056266784,10.750003611755371,6.312000056266784,10.750003611755371C6.305000056266785,10.66200361175537,6.2380000562667846,10.59800361175537,6.162000056266785,10.59800361175537M6.962000056266785,9.836003611755372C6.918670056266785,9.837793611755371,6.877490056266785,9.85535361175537,6.846190056266785,9.885363611755372C6.814890056266784,9.91537361175537,6.795620056266785,9.955783611755372,6.792000056266785,9.99900361175537C6.792000056266785,9.99900361175537,6.6420000562667845,14.062003611755372,6.6420000562667845,14.062003611755372C6.6420000562667845,14.062003611755372,6.780000056266784,16.187003611755372,6.780000056266784,16.187003611755372C6.780000056266784,16.28700361175537,6.8550000562667845,16.361003611755372,6.943000056266785,16.361003611755372C7.029000056266785,16.361003611755372,7.104000056266785,16.28700361175537,7.117000056266785,16.187003611755372C7.117000056266785,16.187003611755372,7.279000056266785,14.062003611755372,7.279000056266785,14.062003611755372C7.279000056266785,14.062003611755372,7.1180000562667844,10.010003611755371,7.1180000562667844,10.010003611755371C7.1050000562667845,9.910003611755371,7.030000056266784,9.835003611755372,6.943000056266785,9.835003611755372M7.769000056266784,9.46300361175537C7.667000056266785,9.46300361175537,7.593000056266785,9.53600361175537,7.5810000562667845,9.63600361175537C7.5810000562667845,9.63600361175537,7.442000056266784,14.03600361175537,7.442000056266784,14.03600361175537C7.442000056266784,14.03600361175537,7.5810000562667845,16.138003611755373,7.5810000562667845,16.138003611755373C7.593000056266785,16.23800361175537,7.667000056266785,16.32600361175537,7.769000056266784,16.32600361175537C7.818290056266784,16.32448361175537,7.865120056266784,16.30416361175537,7.899900056266785,16.269203611755373C7.934670056266785,16.23424361175537,7.954750056266785,16.187293611755372,7.9560000562667845,16.138003611755373C7.9560000562667845,16.138003611755373,8.119000056266785,14.03600361175537,8.119000056266785,14.03600361175537C8.119000056266785,14.03600361175537,7.955000056266785,9.63600361175537,7.955000056266785,9.63600361175537C7.955000056266785,9.53600361175537,7.8680000562667844,9.448003611755372,7.7670000562667845,9.448003611755372M8.805000056266785,9.486003611755372C8.805400056266784,9.45975361175537,8.800530056266783,9.433693611755372,8.790680056266785,9.40937361175537C8.780820056266784,9.385043611755371,8.766180056266784,9.362943611755371,8.747620056266785,9.34438361175537C8.729060056266785,9.325823611755371,8.706960056266784,9.311183611755371,8.682630056266785,9.301323611755372C8.658300056266786,9.291463611755372,8.632240056266784,9.286593611755372,8.606000056266785,9.28700361175537C8.553350056266785,9.288003611755371,8.503100056266785,9.30923361175537,8.465680056266784,9.346283611755371C8.428260056266785,9.383333611755372,8.406530056266785,9.433363611755372,8.405000056266784,9.486003611755372C8.405000056266784,9.486003611755372,8.280000056266784,14.024003611755372,8.280000056266784,14.024003611755372C8.280000056266784,14.024003611755372,8.404000056266785,16.11300361175537,8.404000056266785,16.11300361175537C8.419000056266785,16.22400361175537,8.505000056266784,16.312003611755372,8.618000056266784,16.312003611755372C8.731000056266785,16.312003611755372,8.819000056266784,16.22400361175537,8.819000056266784,16.11300361175537C8.819000056266784,16.11300361175537,8.955000056266785,14.024003611755372,8.955000056266785,14.024003611755372C8.955000056266785,14.024003611755372,8.819000056266784,9.474003611755371,8.819000056266784,9.474003611755371C8.819000056266784,9.474003611755371,8.805000056266785,9.486003611755372,8.805000056266785,9.486003611755372ZM9.430000056266785,9.375003611755371C9.317000056266785,9.375003611755371,9.217000056266784,9.47500361175537,9.217000056266784,9.586003611755372C9.217000056266784,9.586003611755372,9.092000056266784,14.02500361175537,9.092000056266784,14.02500361175537C9.092000056266784,14.02500361175537,9.217000056266784,16.08800361175537,9.217000056266784,16.08800361175537C9.217000056266784,16.21300361175537,9.317000056266785,16.30100361175537,9.430000056266785,16.30100361175537C9.487910056266784,16.29917361175537,9.542790056266785,16.27467361175537,9.582820056266785,16.23277361175537C9.622840056266785,16.19087361175537,9.644820056266784,16.134933611755372,9.644000056266783,16.077003611755373C9.644000056266783,16.077003611755373,9.769000056266783,14.013003611755371,9.769000056266783,14.013003611755371C9.769000056266783,14.013003611755371,9.629000056266785,9.585003611755372,9.629000056266785,9.585003611755372C9.629000056266785,9.46300361175537,9.529000056266785,9.36000361175537,9.404000056266785,9.36000361175537M10.242000056266784,9.499003611755372C10.210840056266784,9.498863611755372,10.179960056266784,9.50490361175537,10.151150056266784,9.51677361175537C10.122330056266785,9.528633611755371,10.096150056266785,9.546083611755371,10.074120056266784,9.568123611755372C10.052090056266785,9.59015361175537,10.034630056266785,9.61633361175537,10.022770056266785,9.64514361175537C10.010910056266784,9.67396361175537,10.004870056266785,9.704843611755372,10.005000056266784,9.736003611755372C10.005000056266784,9.736003611755372,9.919000056266785,14.026003611755371,9.919000056266785,14.026003611755371C9.919000056266785,14.026003611755371,10.032000056266785,16.089003611755373,10.032000056266785,16.089003611755373C10.032000056266785,16.21300361175537,10.132000056266785,16.32000361175537,10.268000056266784,16.32000361175537C10.393000056266784,16.32000361175537,10.495000056266784,16.220003611755374,10.505000056266784,16.083003611755373C10.505000056266784,16.083003611755373,10.606000056266785,14.045003611755371,10.606000056266785,14.045003611755371C10.606000056266785,14.045003611755371,10.494000056266785,9.78000361175537,10.494000056266785,9.78000361175537C10.484000056266785,9.643003611755372,10.381000056266785,9.542003611755371,10.257000056266785,9.542003611755371M11.245000056266784,8.756003611755371C11.202860056266784,8.731323611755371,11.154830056266785,8.71853361175537,11.106000056266785,8.71900361175537C11.056000056266784,8.71900361175537,11.006000056266785,8.73200361175537,10.969000056266784,8.756003611755371C10.931360056266785,8.777723611755372,10.900040056266784,8.808893611755371,10.878120056266784,8.846423611755371C10.856200056266784,8.88394361175537,10.844440056266786,8.92654361175537,10.844000056266784,8.970003611755372C10.844000056266784,8.970003611755372,10.844000056266784,9.02000361175537,10.844000056266784,9.02000361175537C10.844000056266784,9.02000361175537,10.758000056266784,14.064003611755371,10.758000056266784,14.064003611755371C10.758000056266784,14.064003611755371,10.854000056266784,16.10700361175537,10.854000056266784,16.10700361175537C10.854000056266784,16.10700361175537,10.854000056266784,16.114003611755372,10.854000056266784,16.114003611755372C10.860000056266784,16.16400361175537,10.878000056266785,16.22600361175537,10.914000056266785,16.26400361175537C10.964000056266785,16.315003611755373,11.034000056266784,16.35000361175537,11.110000056266784,16.35000361175537C11.175170056266785,16.34648361175537,11.237070056266784,16.32031361175537,11.285000056266785,16.27600361175537C11.309520056266784,16.25128361175537,11.328880056266785,16.22193361175537,11.341930056266785,16.18965361175537C11.354970056266785,16.15737361175537,11.361460056266784,16.12281361175537,11.361000056266784,16.08800361175537C11.361000056266784,16.08800361175537,11.374000056266784,15.887003611755372,11.374000056266784,15.887003611755372C11.374000056266784,15.887003611755372,11.471000056266785,14.04900361175537,11.471000056266785,14.04900361175537C11.471000056266785,14.04900361175537,11.358000056266786,8.974003611755371,11.358000056266786,8.974003611755371C11.357440056266785,8.93423361175537,11.347000056266785,8.895223611755371,11.327620056266785,8.86048361175537C11.308250056266784,8.82575361175537,11.280540056266785,8.79637361175537,11.247000056266785,8.775003611755372C11.247000056266785,8.775003611755372,11.245000056266784,8.756003611755371,11.245000056266784,8.756003611755371ZM12.082000056266784,8.29899961175537C12.066600056266784,8.28157761175537,12.047400056266785,8.267856611755372,12.025900056266785,8.258853611755372C12.004500056266785,8.249851611755371,11.981250056266784,8.245799611755372,11.958000056266785,8.24699961175537C11.895860056266784,8.244747611755372,11.834710056266784,8.263022611755371,11.784000056266784,8.29899961175537C11.753640056266784,8.323141611755371,11.728940056266785,8.353655611755372,11.711660056266785,8.38838661175537C11.694380056266784,8.423117611755371,11.684940056266784,8.461219611755372,11.684000056266784,8.49999961175537C11.684000056266784,8.49999961175537,11.684000056266784,8.52299961175537,11.684000056266784,8.52299961175537C11.684000056266784,8.52299961175537,11.570000056266785,14.03600361175537,11.570000056266785,14.03600361175537C11.570000056266785,14.03600361175537,11.633000056266784,15.050003611755372,11.633000056266784,15.050003611755372C11.633000056266784,15.050003611755372,11.685000056266786,16.03800361175537,11.685000056266786,16.03800361175537C11.686590056266784,16.110673611755374,11.716980056266785,16.17973361175537,11.769490056266784,16.22999361175537C11.822010056266784,16.28025361175537,11.892330056266784,16.307593611755372,11.965000056266785,16.306003611755372C12.037700056266784,16.30440361175537,12.106700056266785,16.27401361175537,12.157000056266785,16.221503611755374C12.207200056266785,16.16899361175537,12.234600056266785,16.09866361175537,12.233000056266786,16.02600361175537C12.233000056266786,16.02600361175537,12.358000056266786,14.013003611755371,12.358000056266786,14.013003611755371C12.358000056266786,14.013003611755371,12.233000056266786,8.477000611755372,12.233000056266786,8.477000611755372C12.231900056266785,8.42985661175537,12.218600056266785,8.383799611755371,12.194400056266785,8.343316611755371C12.170300056266784,8.30283461175537,12.136000056266784,8.269306611755372,12.095000056266784,8.24600061175537M19.547000056266786,11.396003611755372C19.211000056266784,11.396003611755372,18.884000056266785,11.468003611755371,18.598000056266784,11.589003611755372C18.537300056266783,10.918543611755371,18.321500056266785,10.271393611755371,17.967600056266782,9.69873361175537C17.613700056266786,9.12606361175537,17.131400056266784,8.643573611755372,16.558900056266786,8.289420611755371C15.986400056266785,7.9352626117553715,15.339300056266785,7.719144811755371,14.668900056266784,7.658153111755371C13.998400056266785,7.597161511755371,13.323000056266785,7.692968811755371,12.696000056266785,7.938000611755371C12.508000056266784,8.013000611755372,12.469000056266784,8.08900061175537,12.458000056266785,8.23900061175537C12.458000056266785,8.23900061175537,12.458000056266785,16.05100361175537,12.458000056266785,16.05100361175537C12.462300056266784,16.124013611755373,12.492200056266785,16.193163611755374,12.542500056266785,16.246233611755372C12.592900056266785,16.29930361175537,12.660300056266784,16.33286361175537,12.733000056266786,16.34100361175537C12.733000056266786,16.34100361175537,19.560000056266784,16.34100361175537,19.560000056266784,16.34100361175537C19.881500056266784,16.34391361175537,20.200500056266783,16.28293361175537,20.498200056266786,16.16159361175537C20.796000056266784,16.04025361175537,21.066700056266786,15.860973611755371,21.294700056266784,15.63416361175537C21.522600056266786,15.407353611755372,21.703200056266784,15.137523611755372,21.826000056266786,14.840343611755372C21.948800056266784,14.543163611755372,22.011300056266784,14.224553611755372,22.010000056266783,13.90300361175537C22.011600056266786,13.25153361175537,21.754400056266785,12.626103611755372,21.295000056266783,12.164233611755371C20.835500056266785,11.70235361175537,20.211500056266786,11.441853611755372,19.560000056266784,11.44000361175537" fill="#D9E5EC" fill-opacity="1"/></g></g></svg>