<svg xmlns="http://www.w3.org/2000/svg" xmlns:xlink="http://www.w3.org/1999/xlink" fill="none" version="1.1" width="24" height="24" viewBox="0 0 24 24"><defs><clipPath id="master_svg0_0_53"><rect x="0" y="0" width="24" height="24" rx="0"/></clipPath></defs><g clip-path="url(#master_svg0_0_53)"><g><path d="M21.59299851131439,7.203002370605469C21.47909851131439,6.780402370605469,21.25649851131439,6.395002370605469,20.947398511314393,6.085172370605469C20.638198511314393,5.775330370605468,20.25329851131439,5.5518603706054686,19.83099851131439,5.436999370605469C18.264998511314392,5.006999760605469,11.999998511314391,4.9999999671154685,11.999998511314391,4.9999999671154685C11.999998511314391,4.9999999671154685,5.735998511314392,4.992999760605469,4.168998511314392,5.403999370605469C3.746928511314392,5.524146370605469,3.362818511314392,5.750777370605469,3.053568511314392,6.062132370605469C2.744309511314392,6.373492370605469,2.520285511314392,6.759122370605469,2.403000511314392,7.182002370605469C1.990000161314392,8.74800237060547,1.985999976454392,11.996002370605469,1.985999976454392,11.996002370605469C1.985999976454392,11.996002370605469,1.9819999913143922,15.259992370605469,2.391999511314392,16.80999237060547C2.6219995113143924,17.66699237060547,3.296998511314392,18.34399237060547,4.154998511314393,18.574992370605468C5.7369985113143915,19.00499237060547,11.984998511314393,19.01199237060547,11.984998511314393,19.01199237060547C11.984998511314393,19.01199237060547,18.24999851131439,19.018992370605467,19.81599851131439,18.60899237060547C20.238498511314393,18.49429237060547,20.62369851131439,18.27139237060547,20.933698511314393,17.962192370605468C21.243598511314392,17.652992370605467,21.467398511314393,17.26819237060547,21.582998511314393,16.84599237060547C21.99699851131439,15.28099237060547,21.99999851131439,12.034002370605469,21.99999851131439,12.034002370605469C21.99999851131439,12.034002370605469,22.01999851131439,8.769002370605468,21.59299851131439,7.203002370605469ZM9.995998511314392,15.00499237060547C9.995998511314392,15.00499237060547,10.000998511314393,9.00500237060547,10.000998511314393,9.00500237060547C10.000998511314393,9.00500237060547,15.207998511314392,12.01000237060547,15.207998511314392,12.01000237060547C15.207998511314392,12.01000237060547,9.995998511314392,15.00499237060547,9.995998511314392,15.00499237060547Z" fill="#D9E5EC" fill-opacity="1"/></g></g></svg>